HIERARCHY
ROOT Hips
{
	OFFSET -183.429703 89.960052 22.660780
	CHANNELS 6 Xposition Yposition Zposition Zrotation Yrotation Xrotation 
	JOINT LeftUpLeg
	{
		OFFSET 0.103454 1.857828 10.548502
		CHANNELS 3 Zrotation Yrotation Xrotation
		JOINT LeftLeg
		{
			OFFSET 43.500000 -0.000023 -0.000008
			CHANNELS 3 Zrotation Yrotation Xrotation
			JOINT LeftFoot
			{
				OFFSET 42.372192 0.000008 0.000008
				CHANNELS 3 Zrotation Yrotation Xrotation
				JOINT LeftToe
				{
					OFFSET 17.299997 -0.000001 0.000000
					CHANNELS 3 Zrotation Yrotation Xrotation
					End Site
					{
						OFFSET 0.000000 0.000000 0.000000
					}
				}
			}
		}
	}
	JOINT RightUpLeg
	{
		OFFSET 0.103459 1.857828 -10.548505
		CHANNELS 3 Zrotation Yrotation Xrotation
		JOINT RightLeg
		{
			OFFSET 43.500046 -0.000027 0.000015
			CHANNELS 3 Zrotation Yrotation Xrotation
			JOINT RightFoot
			{
				OFFSET 42.372261 -0.000008 0.000019
				CHANNELS 3 Zrotation Yrotation Xrotation
				JOINT RightToe
				{
					OFFSET 17.299992 -0.000006 -0.000002
					CHANNELS 3 Zrotation Yrotation Xrotation
					End Site
					{
						OFFSET 0.000000 0.000000 0.000000
					}
				}
			}
		}
	}
	JOINT Spine
	{
		OFFSET 6.901967 -2.603729 0.000006
		CHANNELS 3 Zrotation Yrotation Xrotation
		JOINT Spine1
		{
			OFFSET 12.588098 -0.000001 -0.000005
			CHANNELS 3 Zrotation Yrotation Xrotation
			JOINT Spine2
			{
				OFFSET 12.343207 0.000001 -0.000003
				CHANNELS 3 Zrotation Yrotation Xrotation
				JOINT Neck
				{
					OFFSET 25.832897 -0.000006 -0.000001
					CHANNELS 3 Zrotation Yrotation Xrotation
					JOINT Head
					{
						OFFSET 11.766602 0.000010 0.000005
						CHANNELS 3 Zrotation Yrotation Xrotation
						End Site
						{
							OFFSET 0.000000 0.000000 0.000000
						}
					}
				}
				JOINT LeftShoulder
				{
					OFFSET 19.745901 -1.480368 6.000114
					CHANNELS 3 Zrotation Yrotation Xrotation
					JOINT LeftArm
					{
						OFFSET 11.284125 -0.000009 -0.000026
						CHANNELS 3 Zrotation Yrotation Xrotation
						JOINT LeftForeArm
						{
							OFFSET 33.000046 0.000005 0.000037
							CHANNELS 3 Zrotation Yrotation Xrotation
							JOINT LeftHand
							{
								OFFSET 25.200003 0.000016 -0.000001
								CHANNELS 3 Zrotation Yrotation Xrotation
								End Site
								{
									OFFSET 0.000000 0.000000 0.000000
								}
							}
						}
					}
				}
				JOINT RightShoulder
				{
					OFFSET 19.746088 -1.480377 -6.000074
					CHANNELS 3 Zrotation Yrotation Xrotation
					JOINT RightArm
					{
						OFFSET 11.284132 -0.000015 -0.000021
						CHANNELS 3 Zrotation Yrotation Xrotation
						JOINT RightForeArm
						{
							OFFSET 33.000107 0.000015 0.000018
							CHANNELS 3 Zrotation Yrotation Xrotation
							JOINT RightHand
							{
								OFFSET 25.199774 0.000138 0.000420
								CHANNELS 3 Zrotation Yrotation Xrotation
								End Site
								{
									OFFSET 0.000000 0.000000 0.000000
								}
							}
						}
					}
				}
			}
		}
	}
}
MOTION
Frames: 12
Frame Time: 0.033333
26.928511 81.198677 479.896515 92.630821 21.195773 -89.311041 142.975366 -0.135606 164.215875 -65.372512 1.488300 -4.028365 105.195500 2.634815 0.989662 21.454555 0.003103 -0.000002 146.574138 4.037905 178.052677 -87.284128 -3.868173 8.826664 69.255297 -2.029897 12.017241 21.454553 -0.003105 -0.000020 8.445686 -0.402436 -0.417574 6.881577 -0.779424 -0.858305 6.563492 -0.784472 -0.853568 -0.886937 4.470054 -0.277431 -26.197614 -3.820246 2.512015 169.010026 -87.331782 9.381448 -12.366617 63.429528 -10.913491 -103.811116 1.567154 2.809566 -7.827583 -12.381496 12.890730 151.518103 78.330126 -27.503845 35.439932 -53.041873 -45.653924 -63.061982 9.047894 -1.841653 -3.572924 22.215417 2.838898 
26.820210 80.351128 474.566101 94.455970 20.868724 -86.051019 148.085905 -1.335603 164.907650 -63.909704 1.364037 -2.313923 108.234395 1.458922 1.389645 21.454555 0.003092 -0.000001 136.899599 1.129583 178.524971 -99.574835 -3.617343 7.791629 73.836251 -2.001575 11.249530 21.454555 -0.003104 -0.000011 8.800548 -0.068921 -1.274014 7.588853 -0.054358 -2.549772 7.271098 -0.069621 -2.549388 0.075129 6.967978 0.328781 -26.734836 -4.768952 4.132621 156.468870 -88.088280 21.928722 -25.419992 59.374937 -25.362463 -105.795901 2.123977 2.858245 -6.332807 -14.277527 5.024697 158.316764 78.921326 -20.571188 43.166878 -51.098909 -52.676359 -62.427116 8.257282 -1.763515 -3.217425 29.459692 6.676869 
26.592581 80.129761 468.451813 97.052125 20.876236 -81.819943 153.948448 -3.403392 165.821693 -59.972981 1.260130 -0.043855 109.651809 -0.044630 1.658866 21.454550 0.003092 0.000000 126.306508 -0.347105 -176.976772 -106.201198 -3.570697 7.532783 78.804421 -2.946594 8.768742 21.454555 -0.003107 -0.000020 8.969251 0.645516 -2.139013 7.899769 1.435249 -4.229294 7.582505 1.409851 -4.237857 0.503068 8.470039 0.822656 -26.736162 -5.856369 5.459665 104.933542 -88.604786 73.483000 -33.030044 54.269750 -34.014762 -108.448603 2.660593 2.937008 -5.665956 -14.613610 0.322043 167.632622 79.989595 -11.067108 51.970821 -45.865728 -60.025799 -65.297093 6.696231 -1.766609 -6.005776 34.766786 4.894365 
25.859091 80.553711 461.448486 99.190036 20.808581 -78.417969 161.607740 -5.627106 165.371229 -52.520511 0.784227 2.493680 107.797795 -1.650232 2.084834 21.454551 0.003098 0.000000 116.924738 -0.620300 -171.777987 -106.532796 -3.446464 7.612055 83.495422 -3.639080 7.553685 21.454555 -0.003103 -0.000020 9.043303 1.480712 -2.943383 7.997008 3.160916 -5.779563 7.680151 3.126145 -5.798464 0.313747 8.867939 1.416086 -26.369445 -7.181845 6.765866 65.087024 -88.053583 113.317947 -34.607892 49.680781 -36.539057 -110.898107 3.057815 3.015605 -6.287010 -13.052435 1.588571 174.371711 81.693734 -4.177391 59.105623 -38.359910 -66.242931 -70.877986 4.914561 -1.866073 -10.631415 37.004172 0.500430 
24.331730 81.620857 453.572510 100.917896 20.732308 -76.755002 170.885691 -7.090803 164.849348 -41.666377 -0.006276 5.010405 100.281500 -3.187892 1.738232 21.454553 0.003095 0.000001 110.720010 -0.904203 -167.128240 -100.296499 -2.930595 6.838948 86.052577 -3.512037 6.478729 21.454558 -0.003111 -0.000017 9.076480 2.352406 -3.583387 7.996152 4.946293 -7.002010 7.679365 4.904148 -7.031591 -0.375114 8.183580 2.277759 -25.997054 -8.665086 8.203739 37.447919 -87.693864 140.880998 -31.705946 47.183377 -33.594910 -112.385415 3.319348 3.061386 -7.073139 -11.148812 6.230660 169.968383 83.952273 -8.558102 64.155140 -31.440488 -71.199770 -76.964306 3.590613 -2.027758 -13.664570 37.797758 -1.836674 
22.123211 83.047394 445.076508 101.685896 21.210343 -76.817020 179.361095 -6.023606 166.070340 -29.792035 -0.126954 4.835430 84.001922 -3.521347 -1.146682 21.454560 0.003085 0.000001 108.314328 -1.789400 -164.512332 -88.860222 -1.517868 4.713335 88.094188 -2.255836 6.163923 21.454560 -0.003113 -0.000022 9.021242 3.032265 -3.984701 7.826574 6.326430 -7.766699 7.509581 6.279684 -7.804552 -0.931056 6.597911 3.246738 -26.265542 -10.002078 9.518301 11.731024 -87.571904 166.491872 -26.384222 46.478812 -25.634542 -112.307195 3.364915 3.054905 -6.906713 -10.019456 10.046151 144.001739 85.126690 -34.650520 68.559820 -27.311032 -74.492242 -81.526545 2.856680 -2.172785 -14.865598 38.850994 -2.109190 
19.616220 84.436127 436.485504 101.385293 22.375097 -77.905028 -175.967052 -3.366803 168.234062 -23.145658 1.459481 2.506744 65.064758 -4.929830 -8.045586 21.454548 0.003095 -0.000005 109.363623 -3.327509 -163.227137 -75.060664 0.263734 2.666911 89.185871 -0.869784 6.587594 21.454555 -0.003098 -0.000016 8.868781 3.374284 -4.054398 7.496665 7.003318 -7.896083 7.179308 6.955805 -7.938034 -0.693650 4.256021 3.953507 -27.487348 -10.848313 10.236011 -5.331063 -87.618377 -176.511964 -21.191246 46.845638 -15.133213 -110.270590 3.049772 2.989090 -5.756761 -9.169459 11.737864 124.364604 83.941843 -54.471418 73.059474 -26.603262 -75.062208 -84.057991 2.439097 -2.254251 -15.829821 39.026622 -2.942459 
17.081800 85.259560 427.987488 98.999207 23.653041 -79.855949 -176.457924 -0.515705 167.846243 -29.365743 2.394968 1.026144 59.653574 -5.827597 -11.340099 21.454560 0.003092 -0.000002 113.413672 -4.277808 -162.078367 -63.319139 0.880727 3.640832 90.270854 -1.635704 6.521694 21.454558 -0.003121 -0.000019 8.707694 3.140886 -3.858993 7.199638 6.514962 -7.527096 6.882307 6.469636 -7.566128 0.773202 1.088875 4.039684 -29.712747 -10.986502 9.923753 -9.660036 -88.071260 -172.172007 -17.470232 48.446566 -5.222699 -106.363510 2.251348 2.874306 -4.134572 -7.687181 12.449382 127.887957 82.475689 -51.056805 76.620857 -29.058241 -72.474898 -85.556452 2.315449 -2.311588 -15.938043 34.604931 -4.688027 
14.938250 85.144524 420.264313 96.643434 24.022776 -81.603029 179.054939 0.497605 165.092584 -46.670655 3.072152 1.171477 62.337852 -5.043559 -9.875863 21.454548 0.003094 -0.000001 118.823462 -4.985192 -159.917992 -57.882623 0.252024 6.028469 88.926263 -3.177938 6.653717 21.454557 -0.003113 -0.000019 8.744281 2.721468 -3.365695 7.322525 5.649772 -6.560362 7.005030 5.610276 -6.594237 3.559958 -2.405232 3.142498 -33.108478 -10.671905 8.526870 3.777854 -88.769646 174.455094 -15.051379 51.365533 2.610645 -101.117303 0.986973 2.730757 -2.616227 -6.025389 14.219333 144.023636 81.404196 -34.885966 77.442918 -33.978183 -66.583232 -86.728253 2.219889 -2.356714 -13.344746 23.943242 -6.388276 
13.003820 84.293671 412.521088 94.143994 23.347212 -83.232057 171.874238 0.531213 162.521551 -69.728916 4.075550 -0.834555 63.889111 -2.879882 -8.411947 21.454558 0.003090 -0.000000 125.732062 -5.016690 -158.925347 -57.801535 -1.139118 6.124741 95.630578 -4.287133 -0.621735 21.454555 -0.003111 -0.000017 8.958363 2.173138 -2.652469 7.808098 4.519853 -5.156250 7.490336 4.488819 -5.183398 6.442897 -4.254009 1.370586 -36.937714 -10.839778 6.935730 57.414932 -89.082080 120.912216 -13.203451 55.815524 8.670883 -94.767379 -0.803731 2.573325 -2.285645 -6.015464 18.631682 164.577561 79.356205 -14.194334 71.930518 -41.229078 -56.193797 -86.095996 2.231374 -2.329539 -8.952372 12.004407 -8.429913 
11.239230 82.876801 404.743988 92.716089 22.503317 -84.855968 162.819306 -1.251103 161.336499 -93.926166 3.786909 -3.994330 68.655771 1.204536 -4.435803 21.454539 0.003087 -0.000001 132.711573 -5.281404 -160.331601 -58.570279 -1.805399 5.975703 104.928713 -4.079816 -3.528162 21.454553 -0.003094 -0.000017 9.209381 1.778096 -1.785692 8.354866 3.680219 -3.440111 8.036685 3.659517 -3.462259 7.253054 -3.668143 -0.079255 -39.786159 -11.536033 6.275001 108.387022 -88.593188 70.032464 -8.678880 60.997482 15.864060 -87.694691 -3.816966 2.470222 -3.970702 -8.392893 24.325311 177.028326 75.438872 -1.637385 54.689960 -48.486246 -40.035956 -82.132704 3.988255 -2.278125 -5.895390 6.310456 -10.285004 
9.476605 81.919350 397.050201 92.659303 22.776142 -87.564938 149.769260 -4.206607 160.625258 -114.845410 3.848429 -6.067193 73.166004 4.364408 0.462515 21.454553 0.003088 -0.000009 138.578828 -6.970007 -163.291655 -58.071477 -1.859742 6.410954 110.131213 -4.165676 -2.465611 21.454557 -0.003111 -0.000016 9.291684 1.546267 -0.872026 8.551311 3.152589 -1.628059 8.232842 3.142844 -1.647073 4.963440 -2.472044 -0.168880 -40.634267 -11.616933 6.509653 154.099094 -87.621997 24.330222 5.329854 64.589076 30.361618 -82.595873 -8.449338 2.570159 -6.429760 -11.958810 26.932092 179.396162 72.102899 0.716300 27.603641 -51.476267 -20.066273 -78.105815 7.028418 -2.315497 -5.660264 8.379682 -9.550429 
